<svg width="640" height="480" xmlns="http://www.w3.org/2000/svg">

 <g>
  <title>background</title>
  <rect fill="none" id="canvas_background" height="482" width="642" y="-1" x="-1"/>
 </g>
 <g>
  <title>Layer 1</title>
  <g stroke="null" transform="rotate(-23.011737823486328 421.4064331054687,158.9600372314453) " id="svg_1">
   <path stroke="null" id="svg_2" fill="#4864e6" d="m634.786522,-85.90673c42.064667,31.456863 50.599527,111.199363 56.452002,185.763779c5.974402,74.434964 9.144493,143.691843 -13.899629,206.735021c-23.166048,63.043178 -72.668236,119.743203 -123.511616,113.917858c-50.721454,-5.825345 -102.906026,-74.434964 -157.894909,-107.445252c-54.988884,-33.010288 -112.782078,-30.550698 -164.600871,-62.52537c-51.940719,-31.845219 -97.907037,-98.254152 -80.227684,-143.691843c17.679353,-45.437691 98.882449,-69.90414 158.016836,-98.1247c59.01246,-28.22056 95.834285,-60.065779 152.042434,-84.532228c56.086223,-24.466449 131.55877,-41.554128 173.623437,-10.097265z"/>
  </g>
 </g>
</svg>